<svg width="80" height="80" viewBox="0 0 80 80" fill="none" xmlns="http://www.w3.org/2000/svg">
<path d="M78.0705 63.0469L57.1417 33.5938V10H58.5703C60.9453 10 62.8561 8.32813 62.8561 6.25V3.75C62.8561 1.67187 60.9453 0 58.5703 0H21.4271C19.0521 0 17.1413 1.67187 17.1413 3.75V6.25C17.1413 8.32813 19.0521 10 21.4271 10H22.8557V33.5938L1.92692 63.0469C-3.30528 70.4062 2.7305 80 12.6592 80H67.3383C77.2848 80 83.3027 70.3906 78.0705 63.0469V63.0469ZM24.6236 50L33.2308 37.875C33.8915 37.0625 34.2665 36.0625 34.2665 35V10H45.6952V35C45.6952 36.0781 46.0881 37.0625 46.7309 37.875L55.3381 50H24.6236V50Z" fill="#A6DFF2"/>
</svg>
