<svg width="390" height="80" viewBox="0 0 390 80" fill="none" xmlns="http://www.w3.org/2000/svg">
<g filter="url(#filter0_d)">
<rect width="380" height="65" rx="30" fill="white"/>
<path d="M50.592 45.9369L44.7498 40.0957C44.4861 39.832 44.1286 39.6856 43.7536 39.6856H42.7985C44.4158 37.6174 45.3768 35.0161 45.3768 32.1863C45.3768 25.4545 39.9213 20 33.1884 20C26.4555 20 21 25.4545 21 32.1863C21 38.9181 26.4555 44.3726 33.1884 44.3726C36.0187 44.3726 38.6204 43.4118 40.6889 41.7947V42.7497C40.6889 43.1247 40.8354 43.4821 41.0991 43.7457L46.9414 49.587C47.4922 50.1377 48.3829 50.1377 48.9278 49.587L50.5861 47.9289C51.137 47.3782 51.137 46.4876 50.592 45.9369ZM33.1884 39.6856C29.0455 39.6856 25.6878 36.3343 25.6878 32.1863C25.6878 28.0441 29.0396 24.687 33.1884 24.687C37.3313 24.687 40.6889 28.0383 40.6889 32.1863C40.6889 36.3285 37.3371 39.6856 33.1884 39.6856Z" fill="black" fill-opacity="0.57"/>
</g>
<defs>
<filter id="filter0_d" x="0" y="0" width="390" height="80" filterUnits="userSpaceOnUse" color-interpolation-filters="sRGB">
<feFlood flood-opacity="0" result="BackgroundImageFix"/>
<feColorMatrix in="SourceAlpha" type="matrix" values="0 0 0 0 0 0 0 0 0 0 0 0 0 0 0 0 0 0 127 0"/>
<feOffset dx="5" dy="10"/>
<feGaussianBlur stdDeviation="2.5"/>
<feColorMatrix type="matrix" values="0 0 0 0 0 0 0 0 0 0 0 0 0 0 0 0 0 0 0.25 0"/>
<feBlend mode="normal" in2="BackgroundImageFix" result="effect1_dropShadow"/>
<feBlend mode="normal" in="SourceGraphic" in2="effect1_dropShadow" result="shape"/>
</filter>
</defs>
</svg>
